<svg width="21" height="28" viewBox="0 0 21 28" fill="none" xmlns="http://www.w3.org/2000/svg">
<path d="M2.13398 6.88637C1.91221 6.88637 1.73242 7.06611 1.73242 7.28792V25.2802C1.73242 25.502 1.91221 25.6818 2.13398 25.6818H18.5752C18.797 25.6818 18.9767 25.502 18.9767 25.2802V2.13251C18.9767 1.91069 18.797 1.73096 18.5752 1.73096H2.13398C1.91221 1.73096 1.73242 1.91069 1.73242 2.13251V5.41401C1.73242 5.63583 1.91221 5.81556 2.13398 5.81556C2.35574 5.81556 2.53553 5.63583 2.53553 5.41401V2.53406H18.1736V24.8787H2.53553V7.28792C2.53553 7.06616 2.35574 6.88637 2.13398 6.88637Z" fill="#F54528"/>
<path d="M20.3047 21.8445C20.5265 21.8445 20.7062 21.6648 20.7062 21.443V2.02383C20.7062 0.907886 19.7984 0 18.6824 0H2.02383C0.907886 0 0 0.907886 0 2.02383V25.3889C0 26.5048 0.907886 27.4127 2.02383 27.4127H18.6824C19.7984 27.4127 20.7062 26.5048 20.7062 25.3889V23.3169C20.7062 23.0951 20.5265 22.9153 20.3047 22.9153C20.0829 22.9153 19.9031 23.0951 19.9031 23.3169V25.3889C19.9031 26.062 19.3555 26.6096 18.6824 26.6096H2.02383C1.35072 26.6096 0.803107 26.062 0.803107 25.3889V2.02383C0.803107 1.35072 1.35072 0.803107 2.02383 0.803107H18.6824C19.3555 0.803107 19.9031 1.35072 19.9031 2.02383V21.443C19.9031 21.6648 20.0829 21.8445 20.3047 21.8445Z" fill="#F54528"/>
<path d="M13.6313 6.43393C13.7097 6.51232 13.8125 6.55151 13.9152 6.55151C14.018 6.55151 14.1208 6.51232 14.1991 6.43393L14.68 5.95303L15.1609 6.43393C15.2393 6.51232 15.3421 6.55151 15.4449 6.55151C15.5476 6.55151 15.6504 6.51232 15.7288 6.43393C15.8856 6.27706 15.8856 6.02285 15.7288 5.86603L15.2479 5.38513L15.7288 4.90423C15.8856 4.74736 15.8856 4.49315 15.7288 4.33632C15.572 4.17956 15.3177 4.17956 15.1609 4.33632L14.68 4.81723L14.1991 4.33632C14.0423 4.17956 13.7881 4.17956 13.6313 4.33632C13.4745 4.4932 13.4745 4.74741 13.6313 4.90423L14.1122 5.38513L13.6313 5.86603C13.4745 6.02285 13.4745 6.27706 13.6313 6.43393Z" fill="#F54528"/>
<path d="M14.1389 10.2763H6.56707C6.0474 10.2763 5.62465 10.6991 5.62465 11.2188V13.0363C5.00133 13.2119 4.54297 13.7852 4.54297 14.4639C4.54297 15.1425 5.00133 15.7158 5.62465 15.8914V17.7089C5.62465 18.2285 6.0474 18.6513 6.56707 18.6513H14.1389C14.2158 18.6513 14.2782 18.7138 14.2782 18.7906V20.2837C13.6549 20.4593 13.1966 21.0325 13.1966 21.7112C13.1966 22.529 13.862 23.1944 14.6798 23.1944C15.4976 23.1944 16.163 22.529 16.163 21.7112C16.163 21.0325 15.7047 20.4592 15.0813 20.2837V18.7906C15.0813 18.271 14.6586 17.8482 14.1389 17.8482H6.56707C6.49024 17.8482 6.42775 17.7857 6.42775 17.7089V15.8914C7.05107 15.7158 7.50943 15.1425 7.50943 14.4639C7.50943 13.7852 7.05107 13.2119 6.42775 13.0363V11.2188C6.42775 11.1419 6.49024 11.0795 6.56707 11.0795H14.1389C14.6586 11.0795 15.0813 10.6567 15.0813 10.137V8.61857L15.4235 8.9607C15.5019 9.03908 15.6046 9.07827 15.7074 9.07827C15.8101 9.07827 15.9129 9.03908 15.9913 8.9607C16.1481 8.80382 16.1481 8.54961 15.9913 8.39279L14.9637 7.36519C14.8307 7.22952 14.5645 7.19097 14.3959 7.36519L13.3683 8.39279C13.2114 8.54967 13.2114 8.80388 13.3683 8.9607C13.5251 9.11746 13.7793 9.11746 13.9361 8.9607L14.2782 8.61857V10.137C14.2782 10.2139 14.2157 10.2763 14.1389 10.2763ZM15.3599 21.7112C15.3599 22.0862 15.0547 22.3913 14.6797 22.3913C14.3047 22.3913 13.9996 22.0862 13.9996 21.7112C13.9996 21.3361 14.3047 21.031 14.6797 21.031C15.0547 21.031 15.3599 21.3361 15.3599 21.7112ZM6.70633 14.4639C6.70633 14.8389 6.4012 15.144 6.0262 15.144C5.6512 15.144 5.34608 14.8389 5.34608 14.4639C5.34608 14.0888 5.6512 13.7837 6.0262 13.7837C6.4012 13.7837 6.70633 14.0888 6.70633 14.4639Z" fill="#F54528"/>
<path d="M14.6785 12.98C13.8607 12.98 13.1953 13.6454 13.1953 14.4632C13.1953 15.281 13.8607 15.9464 14.6785 15.9464C15.4964 15.9464 16.1618 15.281 16.1618 14.4632C16.1618 13.6454 15.4964 12.98 14.6785 12.98ZM14.6785 15.1434C14.3035 15.1434 13.9984 14.8383 13.9984 14.4633C13.9984 14.0882 14.3035 13.7831 14.6785 13.7831C15.0535 13.7831 15.3587 14.0882 15.3587 14.4633C15.3587 14.8383 15.0535 15.1434 14.6785 15.1434Z" fill="#F54528"/>
<path d="M4.54297 21.7108C4.54297 22.5286 5.20837 23.194 6.0262 23.194C6.84403 23.194 7.50943 22.5286 7.50943 21.7108C7.50943 20.8929 6.84403 20.2275 6.0262 20.2275C5.20837 20.2275 4.54297 20.8929 4.54297 21.7108ZM6.70633 21.7108C6.70633 22.0858 6.4012 22.3909 6.0262 22.3909C5.6512 22.3909 5.34608 22.0858 5.34608 21.7108C5.34608 21.3357 5.6512 21.0306 6.0262 21.0306C6.4012 21.0306 6.70633 21.3357 6.70633 21.7108Z" fill="#F54528"/>
<path d="M3.86249 5.02186H9.27099C9.49276 5.02186 9.67254 4.84212 9.67254 4.6203C9.67254 4.39849 9.49276 4.21875 9.27099 4.21875H3.86249C3.64073 4.21875 3.46094 4.39849 3.46094 4.6203C3.46094 4.84212 3.64073 5.02186 3.86249 5.02186Z" fill="#F54528"/>
<path d="M3.86249 6.75233H9.27099C9.49276 6.75233 9.67254 6.57259 9.67254 6.35077C9.67254 6.12895 9.49276 5.94922 9.27099 5.94922H3.86249C3.64073 5.94922 3.46094 6.12895 3.46094 6.35077C3.46094 6.57259 3.64073 6.75233 3.86249 6.75233Z" fill="#F54528"/>
<path d="M3.86249 8.48328H7.09966C7.32142 8.48328 7.50121 8.30355 7.50121 8.08173C7.50121 7.85991 7.32142 7.68018 7.09966 7.68018H3.86249C3.64073 7.68018 3.46094 7.85991 3.46094 8.08173C3.46094 8.30355 3.64073 8.48328 3.86249 8.48328Z" fill="#F54528"/>
</svg>
