<svg width="28" height="27" viewBox="0 0 28 27" fill="none" xmlns="http://www.w3.org/2000/svg">
<path d="M21.2286 27.0004H0.573555C0.371594 27.0004 0.183403 26.8958 0.0801275 26.7248C-0.0231479 26.5538 -0.0265905 26.3423 0.0698 26.1679L10.3973 7.60532C10.5982 7.24419 11.204 7.24419 11.4049 7.60532L21.7324 26.1679C21.8288 26.3423 21.8253 26.5538 21.7221 26.7248C21.6188 26.8958 21.4306 27.0004 21.2286 27.0004ZM1.53975 25.8754H20.2613L10.9011 9.04982L1.53975 25.8754Z" fill="#F54528"/>
<path d="M26.966 27H21.2285C20.9117 27 20.6547 26.748 20.6547 26.4375C20.6547 26.127 20.9117 25.875 21.2285 25.875H25.9952L20.688 16.4138L18.5008 20.8508C18.3631 21.1298 18.0223 21.2479 17.7343 21.1118C17.4486 20.9768 17.3292 20.6404 17.4681 20.3603L20.1395 14.9423C20.2336 14.7533 20.4264 14.6306 20.6409 14.625C20.8567 14.6351 21.0552 14.7319 21.1585 14.9164L27.4697 26.1664C27.5673 26.3408 27.565 26.5523 27.4606 26.7233C27.3561 26.8954 27.1691 27 26.966 27Z" fill="#F54528"/>
<path d="M10.9019 8.43754C10.5852 8.43754 10.3281 8.18554 10.3281 7.87504V0.562503C10.3281 0.252001 10.5852 0 10.9019 0H17.7869C18.0187 0 18.2287 0.137251 18.3171 0.347627C18.4066 0.558002 18.3572 0.799879 18.1931 0.960754L16.3032 2.81251L18.192 4.66427C18.3561 4.82515 18.4054 5.06702 18.3159 5.2774C18.2287 5.48777 18.0187 5.62502 17.7869 5.62502H11.4756V7.87504C11.4756 8.18554 11.2186 8.43754 10.9019 8.43754ZM11.4756 4.50002H16.4019L15.0868 3.21076C14.8631 2.99139 14.8631 2.63476 15.0868 2.41539L16.4019 1.12501H11.4756V4.50002Z" fill="#F54528"/>
<path d="M12.6229 16.8753C12.6091 16.8753 12.5965 16.8753 12.5816 16.8742C12.4152 16.863 12.2637 16.7808 12.1639 16.6503L10.9016 15.0011L9.63939 16.6503C9.53956 16.7808 9.38694 16.8618 9.2217 16.8742C9.04843 16.8877 8.89237 16.827 8.77532 16.7111L6.84751 14.8211C6.62375 14.6017 6.62375 14.2451 6.84751 14.0257C7.07127 13.8063 7.43503 13.8063 7.6588 14.0257L9.11842 15.4567L10.4426 13.7253C10.6584 13.4418 11.1438 13.4418 11.3607 13.7253L12.6849 15.4567L14.1445 14.0257C14.3683 13.8063 14.732 13.8063 14.9558 14.0257C15.1796 14.2451 15.1796 14.6017 14.9558 14.8211L13.028 16.7111C12.9201 16.8168 12.7744 16.8753 12.6229 16.8753Z" fill="#F54528"/>
</svg>
