<svg width="23" height="28" viewBox="0 0 23 28" fill="none" xmlns="http://www.w3.org/2000/svg">
<path d="M16.6787 5.81066C15.2502 4.36434 13.3447 3.55346 11.3135 3.52703C9.25306 3.50019 7.30511 4.28655 5.82729 5.7409C4.35031 7.19441 3.53351 9.12862 3.52738 11.1873C3.52082 13.4156 4.48032 15.5345 6.1598 17.0009C7.37571 18.0625 8.07308 19.5723 8.07308 21.1425V25.0191C8.07308 26.5012 9.27884 27.7069 10.7609 27.7069H11.6629C13.1447 27.7069 14.3505 26.5012 14.3505 25.0191V21.1921C14.3505 19.5771 15.0345 18.0611 16.2274 17.0324C17.9234 15.5703 18.8962 13.4481 18.8962 11.2108C18.8962 9.17597 18.1088 7.25804 16.6787 5.81066ZM11.205 15.1063H10.8461C10.6499 15.1063 10.4903 14.9467 10.4903 14.7503C10.4903 14.5541 10.6499 14.3945 10.8461 14.3945C11.0439 14.3945 11.205 14.5556 11.205 14.7535V15.1063ZM11.2118 18.3225C11.5103 18.3225 11.7529 18.5652 11.7529 18.8637V20.7036H10.6706V18.8637C10.6706 18.5652 10.9133 18.3225 11.2118 18.3225ZM13.2682 21.7859V22.5818H9.15539V21.7859H13.2682ZM9.15539 23.6641H13.2682V24.46H9.15539V23.6641ZM11.6627 26.6246H10.7609C10.0587 26.6246 9.46085 26.1714 9.24333 25.5423H13.1802C12.9627 26.1714 12.3649 26.6246 11.6627 26.6246ZM15.5207 16.2129C14.2108 17.3423 13.4119 18.958 13.2857 20.7036H12.8353V18.8637C12.8353 18.3805 12.6228 17.9463 12.2869 17.6486C12.2869 17.6463 12.2873 17.644 12.2873 17.6414V15.8628C12.7281 15.5466 13.0156 15.03 13.0156 14.4474V13.6092C13.0156 12.4563 12.0776 11.5182 10.9245 11.5182H9.94916C9.65026 11.5182 9.408 11.7604 9.408 12.0593C9.408 12.3582 9.65026 12.6005 9.94916 12.6005H10.9245C11.4809 12.6005 11.9333 13.053 11.9333 13.6092V13.8083C11.6688 13.5046 11.2796 13.3122 10.8461 13.3122C10.0532 13.3122 9.408 13.9574 9.408 14.7505C9.408 15.5434 10.0532 16.1886 10.8461 16.1886H11.205V17.2404C10.313 17.244 9.58832 17.9708 9.58832 18.8637V20.7036H9.14039C9.0218 18.981 8.20985 17.354 6.87176 16.1856C5.4284 14.9257 4.60398 13.105 4.60969 11.1907C4.61497 9.42308 5.317 7.76157 6.5866 6.51226C7.85683 5.26211 9.52913 4.58609 11.2993 4.60934C14.8914 4.65585 17.8139 7.6174 17.8139 11.2108C17.8139 13.1332 16.9781 14.9562 15.5207 16.2129Z" fill="#F54528"/>
<path d="M11.3208 6.1597H11.3124C11.0141 6.15674 10.7712 6.39582 10.7676 6.69451C10.7642 6.99341 11.0063 7.23862 11.3052 7.242H11.3134H11.32C11.6157 7.242 11.8548 7.00398 11.8582 6.70719C11.8618 6.40829 11.6197 6.16329 11.3208 6.1597Z" fill="#F54528"/>
<path d="M13.7031 6.79454C13.4418 6.6491 13.1122 6.74296 12.9668 7.00423C12.8216 7.2653 12.9152 7.59485 13.1765 7.74029C14.4357 8.44146 15.2179 9.77131 15.2179 11.2111C15.2179 11.51 15.4601 11.7522 15.759 11.7522C16.0579 11.7522 16.3002 11.51 16.3002 11.2111C16.3002 9.37897 15.305 7.68681 13.7031 6.79454Z" fill="#F54528"/>
<path d="M11.2111 2.54343C11.51 2.54343 11.7522 2.30118 11.7522 2.00228V0.541155C11.7522 0.242252 11.51 0 11.2111 0C10.9122 0 10.6699 0.242252 10.6699 0.541155V2.00228C10.6699 2.30118 10.9122 2.54343 11.2111 2.54343Z" fill="#F54528"/>
<path d="M21.8812 10.6699H20.4201C20.1212 10.6699 19.8789 10.9122 19.8789 11.2111C19.8789 11.51 20.1212 11.7522 20.4201 11.7522H21.8812C22.1801 11.7522 22.4223 11.51 22.4223 11.2111C22.4223 10.9122 22.1801 10.6699 21.8812 10.6699Z" fill="#F54528"/>
<path d="M2.00228 10.6699H0.541155C0.242252 10.6699 0 10.9122 0 11.2111C0 11.51 0.242252 11.7522 0.541155 11.7522H2.00228C2.30118 11.7522 2.54343 11.51 2.54343 11.2111C2.54343 10.9122 2.30118 10.6699 2.00228 10.6699Z" fill="#F54528"/>
<path d="M18.1035 17.3402C17.8921 17.1288 17.5495 17.1288 17.3381 17.3402C17.1269 17.5514 17.1269 17.894 17.3381 18.1054L18.3713 19.1387C18.477 19.2442 18.6155 19.2972 18.754 19.2972C18.8924 19.2972 19.0309 19.2442 19.1366 19.1387C19.348 18.9273 19.348 18.5846 19.1366 18.3732L18.1035 17.3402Z" fill="#F54528"/>
<path d="M4.31673 5.08188C4.42243 5.18757 4.56089 5.24042 4.69934 5.24042C4.8378 5.24042 4.97648 5.18757 5.08196 5.08188C5.29335 4.8707 5.29335 4.52804 5.08196 4.31665L4.0489 3.28338C3.83751 3.07221 3.49485 3.07221 3.28346 3.28338C3.07207 3.49477 3.07228 3.83743 3.28346 4.04882L4.31673 5.08188Z" fill="#F54528"/>
<path d="M18.3732 3.28365L17.3402 4.3167C17.1288 4.52809 17.1288 4.87075 17.3402 5.08214C17.4459 5.18784 17.5843 5.24069 17.7228 5.24069C17.8613 5.24069 17.9997 5.18784 18.1054 5.08214L19.1385 4.04888C19.3499 3.83749 19.3499 3.49482 19.1385 3.28344C18.9273 3.07205 18.5846 3.07226 18.3732 3.28365Z" fill="#F54528"/>
<path d="M4.3166 17.3402L3.28354 18.3732C3.07215 18.5846 3.07215 18.9273 3.28354 19.1387C3.38924 19.2442 3.5277 19.2972 3.66616 19.2972C3.80462 19.2972 3.94307 19.2442 4.04877 19.1387L5.08183 18.1054C5.29322 17.894 5.29322 17.5514 5.08183 17.3402C4.87065 17.1288 4.52799 17.1288 4.3166 17.3402Z" fill="#F54528"/>
</svg>
