<svg width="22" height="27" viewBox="0 0 22 27" fill="none" xmlns="http://www.w3.org/2000/svg">
<path d="M12.9422 10.0031L14.6349 11.6957C14.8963 11.9566 15.2505 12.1031 15.6199 12.1031C15.9892 12.1031 16.3434 11.9566 16.6049 11.6957L21.2908 7.00978C21.3745 6.92608 21.4215 6.81256 21.4215 6.69419C21.4215 6.57583 21.3745 6.46231 21.2908 6.3786L15.0429 0.130664C14.9592 0.0469986 14.8457 0 14.7273 0C14.6089 0 14.4954 0.0469986 14.4117 0.130664L11.157 3.38533L9.46437 1.69265C9.2029 1.43184 8.84867 1.28537 8.47936 1.28537C8.11005 1.28537 7.75582 1.43184 7.49435 1.69265L3.12398 6.06302L2.10073 5.03976C2.01701 4.95609 1.9035 4.9091 1.78514 4.9091C1.66678 4.9091 1.55327 4.95609 1.46955 5.03976L0.130706 6.3786C0.0470157 6.46231 0 6.57583 0 6.69419C0 6.81256 0.0470157 6.92608 0.130706 7.00978L8.74074 15.6198L8.16377 16.1968C8.08009 16.2805 8.03308 16.394 8.03308 16.5124V19.0052L7.58681 19.4515L7.45611 19.3208C7.37239 19.2371 7.25888 19.1901 7.14052 19.1901C7.02216 19.1901 6.90864 19.2371 6.82493 19.3208L0.130706 26.015L0.761886 26.6462L7.14052 20.2675L11.4185 24.5455L9.9489 26.015L10.5801 26.6462L12.3652 24.861C12.4489 24.7773 12.4959 24.6638 12.4959 24.5455C12.4959 24.4271 12.4489 24.3136 12.3652 24.2299L11.7882 23.6529L14.281 21.1601L18.4282 25.3073C18.512 25.391 18.6255 25.438 18.7438 25.438C18.8622 25.438 18.9757 25.391 19.0594 25.3073L20.3983 23.9685C20.482 23.8848 20.529 23.7713 20.529 23.6529C20.529 23.5345 20.482 23.421 20.3983 23.3373L16.251 19.1901L16.828 18.6131C16.9117 18.5294 16.9587 18.4159 16.9587 18.2975C16.9587 18.1791 16.9117 18.0656 16.828 17.9819L13.2578 14.4117C13.174 14.328 13.0605 14.281 12.9422 14.281C12.8238 14.281 12.7103 14.328 12.6266 14.4117L12.5875 14.4508C12.5269 13.9291 12.2912 13.4433 11.9189 13.0728C11.8352 12.9892 11.7217 12.9422 11.6033 12.9422C11.485 12.9422 11.3715 12.9892 11.2877 13.0728L10.7108 13.6498L10.0031 12.9421L12.9422 10.0031ZM15.0811 9.27943L14.6349 9.72572C14.5138 9.84669 14.4162 9.98904 14.347 10.1456L13.5734 9.37188L14.3735 8.57177C14.4673 8.47793 14.5946 8.42521 14.7273 8.42521C14.86 8.42521 14.9873 8.47793 15.0811 8.57177C15.175 8.66561 15.2277 8.79289 15.2277 8.9256C15.2277 9.05831 15.175 9.18559 15.0811 9.27943ZM14.7273 1.07738L20.3441 6.69419L15.9737 11.0646C15.8799 11.1584 15.7526 11.2111 15.6199 11.2111C15.4872 11.2111 15.3599 11.1584 15.266 11.0646C15.1722 10.9707 15.1195 10.8434 15.1195 10.7107C15.1195 10.578 15.1722 10.4507 15.266 10.3569L15.7123 9.91061C15.9735 9.64935 16.1202 9.29504 16.1202 8.9256C16.1202 8.55617 15.9735 8.20185 15.7123 7.94059L11.7882 4.01651L14.7273 1.07738ZM8.12553 2.32383C8.21944 2.23011 8.34669 2.17747 8.47936 2.17747C8.61203 2.17747 8.73929 2.23011 8.83319 2.32383L14.1619 7.65246C14.0054 7.72179 13.8632 7.81948 13.7423 7.94059L8.03308 13.6498L2.41629 8.03307L8.12553 2.32383ZM1.78514 5.98647L2.49281 6.69419L1.78511 7.40189L1.07742 6.69419L1.78514 5.98647ZM19.4516 23.6529L18.7438 24.3606L14.9122 20.5289L15.6199 19.8213L19.4516 23.6529ZM12.9422 15.3584L15.8813 18.2975L14.281 19.8978L11.3419 16.9587L11.9189 16.3817L11.9189 16.3817L11.92 16.3806L12.9422 15.3584ZM11.554 14.0689C11.6927 14.3414 11.7416 14.6509 11.6938 14.9529C11.646 15.255 11.5039 15.5341 11.2877 15.7505L10.3952 16.6431C10.3115 16.7268 10.2645 16.8403 10.2645 16.9587C10.2645 17.077 10.3115 17.1906 10.3952 17.2743C10.7844 17.6643 11.0029 18.1928 11.0029 18.7438C11.0029 19.2948 10.7844 19.8233 10.3952 20.2133L11.0264 20.8445C11.5764 20.2949 11.8882 19.551 11.8944 18.7735L13.6498 20.5289L11.157 23.0217L8.21798 20.0826L8.79495 19.5057C8.87863 19.422 8.92564 19.3084 8.92564 19.1901V16.6972L11.554 14.0689ZM10.0796 14.281L9.37192 14.9886L8.66426 14.281L9.37192 13.5733L10.0796 14.281Z" fill="#F54528"/>
</svg>
