<svg width="30" height="32" viewBox="0 0 30 32" fill="none" xmlns="http://www.w3.org/2000/svg">
<path fill-rule="evenodd" clip-rule="evenodd" d="M26.1334 17.9126L29.398 21.1772C29.6991 21.4766 29.8678 21.8839 29.8668 22.3084V32.0001H28.8001V22.3084C28.8001 22.167 28.7439 22.0313 28.6439 21.9313L26.1334 19.4209V21.2938L28.0199 23.1808L27.2657 23.935L24.4056 21.0748L24.0272 21.4529C23.8191 21.661 23.8191 21.9988 24.0272 22.2071L25.2918 23.4714C25.5889 23.7688 25.7532 24.1738 25.7472 24.5941C25.7415 25.0144 25.566 25.4144 25.2608 25.7035L25.2384 25.7243C24.6478 26.2978 24.5918 27.2272 25.1095 27.8673L26.016 29.0006L25.1829 29.6673L24.2764 28.5334C24.0876 28.2939 23.942 28.023 23.8464 27.7334H22.3628C22.3715 27.7476 22.3796 27.7622 22.3877 27.777L22.3878 27.777C22.4042 27.8068 22.4209 27.8368 22.4423 27.8636L23.4668 29.1462V32.0001H22.4001V29.5207L21.6087 28.5303C21.4183 28.292 21.2709 28.0222 21.1735 27.7334H8.69327C8.59535 28.0235 8.44717 28.2944 8.25551 28.5334L7.4667 29.5207V32.0001H6.40003V29.1462L7.42295 27.8636C7.44261 27.8391 7.45742 27.8121 7.47227 27.785L7.47228 27.785C7.48201 27.7673 7.49176 27.7495 7.5029 27.7324H6.01982C5.92399 28.022 5.77867 28.2928 5.58987 28.5324L4.68336 29.6668L3.85028 29.0001L4.7568 27.8662C5.27711 27.2235 5.21799 26.2894 4.62086 25.7175L4.60549 25.703C4.30028 25.4139 4.12476 25.0139 4.11903 24.5936C4.11304 24.1733 4.27737 23.7683 4.5745 23.4709L5.83909 22.2066C6.04716 21.9983 6.04716 21.6605 5.83909 21.4524L5.46149 21.0743L2.60106 23.9345L1.84689 23.1803L3.73335 21.2938V19.4209L1.22293 21.9313C1.12293 22.0313 1.06668 22.167 1.06668 22.3084V32.0001H7.4682e-06V22.3084C-0.00129462 21.8837 0.167716 21.4764 0.468759 21.1772L3.73335 17.9126V6.71252L10.4459 0H26.1334V17.9126ZM10.1334 6.40002V1.82084L5.55419 6.40002H10.1334ZM23.2727 20.6983L23.6514 20.3201C24.0358 19.9397 24.6438 19.9071 25.0668 20.2443V1.06667H11.2V7.46669H4.80002V20.2443C5.22294 19.9074 5.83128 19.9399 6.21539 20.3206L6.59404 20.6993C7.21878 21.324 7.21878 22.3368 6.59404 22.9618L5.32971 24.2261C5.13935 24.4181 5.13935 24.7277 5.32971 24.9196L5.34143 24.9298C5.82086 25.3866 6.11279 26.0061 6.15992 26.6668H23.7069C23.7537 26.0071 24.0444 25.3886 24.5222 24.9319L24.5371 24.9186C24.7274 24.7267 24.7274 24.417 24.5371 24.2251L23.2727 22.9605C22.648 22.3358 22.648 21.323 23.2727 20.6983ZM14.4001 4.26663H13.3334V5.3333H14.4001V4.26663ZM15.4667 4.26663H22.9334V5.3333H15.4667V4.26663ZM14.4001 6.39998H13.3334V7.46665H14.4001V6.39998ZM15.4667 6.39998H22.9334V7.46665H15.4667V6.39998ZM20.8001 21.3334H14.4V22.4H20.8001V21.3334ZM14.4 23.4667H20.8001V24.5334H14.4V23.4667ZM22.9334 14.9333H6.93337V8.53332H22.9334V14.9333ZM21.8668 9.59999H8.00004V13.8667H21.8668V9.59999ZM6.93337 17.0667H8.00004V18.1334H6.93337V17.0667ZM22.9334 17.0667H9.06671V18.1334H22.9334V17.0667ZM6.93337 19.2H8.00004V20.2667H6.93337V19.2ZM22.9334 19.2H9.06671V20.2667H22.9334V19.2Z" fill="#F54528"/>
</svg>
