<svg width="30" height="33" viewBox="0 0 30 33" fill="none" xmlns="http://www.w3.org/2000/svg">
<path d="M29.9892 31.482L29.4535 28.8034C29.4026 28.5539 29.1831 28.3747 28.9285 28.3748H27.857V24.6247C27.857 23.7371 27.1375 23.0176 26.2499 23.0176H11.7854C10.8978 23.0176 10.1783 23.7371 10.1783 24.6247V28.3748H9.10682C8.85222 28.3747 8.63271 28.5539 8.58181 28.8034L8.04609 31.482C7.9869 31.7718 8.17393 32.0548 8.46382 32.114C8.49911 32.1212 8.53507 32.1248 8.5711 32.1248H29.4642C29.76 32.1249 30 31.8851 30 31.5892C30 31.5531 29.9964 31.5172 29.9892 31.482ZM11.2497 24.6247C11.2497 24.3289 11.4896 24.089 11.7854 24.089H26.2499C26.5457 24.089 26.7856 24.3289 26.7856 24.6247V28.3748H11.2497V24.6247ZM9.22468 31.0534L9.54611 29.4462H28.4897L28.8111 31.0534H9.22468Z" fill="#F54528"/>
<path d="M26.2296 10.6805C25.7417 10.2162 25.0204 10.0956 24.4081 10.3762L19.7875 5.75564L16.3107 2.27667C16.6029 1.66522 16.4792 0.936036 16.0016 0.455228C15.3657 -0.151743 14.365 -0.151743 13.7291 0.455228L7.66687 6.51315C7.03633 7.13364 7.02823 8.14783 7.64872 8.77837C8.13141 9.26889 8.87345 9.39626 9.49207 9.09478L11.0773 10.68L10.9294 10.8278C10.4065 11.3418 10.2272 12.1114 10.4692 12.8036L2.29467 20.9781C1.68248 20.6846 0.951824 20.8084 0.470546 21.2872C-0.156849 21.9148 -0.156849 22.9322 0.470546 23.5597L2.74307 25.8328C3.36799 26.4603 4.38318 26.4623 5.01064 25.8374C5.49339 25.3566 5.61962 24.6232 5.32524 24.0087L13.4998 15.8336C14.1919 16.0748 14.9612 15.8957 15.4755 15.3734L15.6228 15.2261L17.5868 17.19C17.2076 17.9903 17.549 18.9464 18.3493 19.3256C18.9611 19.6154 19.6892 19.4898 20.1684 19.0115L26.2296 12.953C26.857 12.3254 26.857 11.3081 26.2296 10.6805ZM9.18343 8.0287C8.97436 8.23803 8.63512 8.23823 8.42579 8.0291C8.42565 8.02897 8.42552 8.02883 8.42538 8.0287C8.21605 7.81963 8.21585 7.48039 8.42498 7.27106C8.42512 7.27092 8.42525 7.27079 8.42538 7.27065L10.6984 4.99813L14.4871 1.21006C14.6962 1.00126 15.0349 1.00126 15.244 1.21006C15.4532 1.41926 15.4532 1.75837 15.244 1.96756L9.18343 8.0287ZM4.25829 25.0756C4.04895 25.2848 3.70971 25.2846 3.50051 25.0753L1.22799 22.8033C1.02562 22.5875 1.03653 22.2484 1.25236 22.0461C1.45855 21.8527 1.77944 21.8528 1.98549 22.0463L4.25855 24.3178C4.46775 24.5271 4.46762 24.8664 4.25829 25.0756ZM4.63731 23.1815L3.12176 21.666L11.0772 13.7105L12.5922 15.2261L4.63731 23.1815ZM14.7179 14.6159C14.381 14.9531 13.8345 14.9532 13.4974 14.6163C13.4973 14.6162 13.4972 14.616 13.497 14.6159L11.6868 12.8057C11.3505 12.4685 11.3505 11.9226 11.6868 11.5853L11.8347 11.438L14.8653 14.4686L14.7179 14.6159ZM18.2746 16.3629L10.3197 8.40745L15.6228 3.10383L23.5782 11.0593L18.2746 16.3629ZM25.472 12.1955L19.4109 18.2561C19.2086 18.4721 18.8696 18.4832 18.6536 18.281C18.4377 18.0787 18.4265 17.7397 18.6288 17.5237C18.6365 17.5154 18.6445 17.5074 18.6528 17.4996L24.715 11.438C24.8147 11.3367 24.9511 11.28 25.0932 11.281C25.3891 11.2811 25.6289 11.5209 25.6288 11.8168C25.6288 11.9589 25.5724 12.0951 25.472 12.1955Z" fill="#F54528"/>
</svg>
