<svg width="38" height="26" viewBox="0 0 38 26" fill="none" xmlns="http://www.w3.org/2000/svg">
<path d="M37.8983 15.6005L34.8603 9.56247C34.6804 7.79874 34.0624 6.10797 33.0625 4.644C32.0625 3.18003 30.7124 1.98932 29.1349 1.1802C27.5575 0.371084 25.8027 -0.0307556 24.0303 0.0112411C22.2579 0.0532377 20.5242 0.537738 18.9868 1.42066C17.449 0.534294 15.7137 0.0470069 13.9393 0.00323431C12.1648 -0.0405383 10.4077 0.360597 8.82801 1.17006C7.24835 1.97952 5.89646 3.17156 4.89562 4.63747C3.89477 6.10337 3.27683 7.79651 3.09813 9.56247L0.0601413 15.6385C0.0112518 15.7539 -0.00830569 15.8796 0.00321361 16.0044C0.0147329 16.1293 0.0569708 16.2493 0.126159 16.3538C0.195347 16.4584 0.289335 16.5442 0.399736 16.6035C0.510138 16.6629 0.633521 16.694 0.758879 16.6942H3.03737V18.9726C3.03737 19.5769 3.27743 20.1565 3.70473 20.5838C4.13203 21.0111 4.71157 21.2511 5.31586 21.2511H8.35385V25.0486C8.35385 25.2501 8.43387 25.4432 8.5763 25.5857C8.71874 25.7281 8.91192 25.8081 9.11335 25.8081H17.4678C17.6692 25.8081 17.8624 25.7281 18.0049 25.5857C18.1473 25.4432 18.2273 25.2501 18.2273 25.0486V20.2258C18.4855 20.1043 18.7438 19.9676 18.9868 19.8309C19.2374 19.9676 19.4881 20.1043 19.7463 20.2258V25.0486C19.7463 25.2501 19.8263 25.4432 19.9688 25.5857C20.1112 25.7281 20.3044 25.8081 20.5058 25.8081H28.8603C29.0617 25.8081 29.2549 25.7281 29.3973 25.5857C29.5398 25.4432 29.6198 25.2501 29.6198 25.0486V21.2511H32.6578C33.2621 21.2511 33.8416 21.0111 34.2689 20.5838C34.6962 20.1565 34.9363 19.5769 34.9363 18.9726V16.6942H37.2147C37.3438 16.6944 37.4708 16.6618 37.5838 16.5993C37.6967 16.5369 37.7919 16.4466 37.8603 16.3372C37.9287 16.2277 37.9681 16.1027 37.9748 15.9738C37.9814 15.8449 37.9551 15.7164 37.8983 15.6005ZM17.1792 19.0334C17.0405 19.0904 16.9218 19.1871 16.838 19.3115C16.7542 19.4358 16.7091 19.5822 16.7083 19.7321V24.2891H9.87285V20.4916C9.87285 20.2902 9.79283 20.097 9.65039 19.9546C9.50796 19.8122 9.31478 19.7321 9.11335 19.7321H5.31586C5.11443 19.7321 4.92125 19.6521 4.77882 19.5097C4.63638 19.3673 4.55637 19.1741 4.55637 18.9726V15.9347C4.55637 15.7332 4.47635 15.54 4.33391 15.3976C4.19148 15.2552 3.9983 15.1752 3.79687 15.1752H1.98926L4.55637 10.1169C4.59863 10.0313 4.6244 9.93859 4.63231 9.84348C4.8189 7.46979 5.93386 5.26539 7.73533 3.70848C9.53679 2.15158 11.8795 1.36773 14.2551 1.52699C15.4037 1.60033 16.5264 1.89972 17.559 2.40801C16.3428 3.4054 15.3631 4.66015 14.6904 6.08184C14.0178 7.50354 13.6688 9.05676 13.6688 10.6296C13.6688 12.2024 14.0178 13.7556 14.6904 15.1773C15.3631 16.599 16.3428 17.8537 17.559 18.8511L17.1792 19.0334ZM18.9868 18.0157C17.8126 17.1775 16.8554 16.071 16.1951 14.7883C15.5347 13.5055 15.1902 12.0837 15.1902 10.641C15.1902 9.19823 15.5347 7.77637 16.1951 6.49365C16.8554 5.21093 17.8126 4.10444 18.9868 3.26624C20.1625 4.1034 21.1211 5.20953 21.7824 6.49239C22.4438 7.77525 22.7889 9.19764 22.7889 10.641C22.7889 12.0843 22.4438 13.5067 21.7824 14.7895C21.1211 16.0724 20.1625 17.1785 18.9868 18.0157ZM34.1768 15.1752C33.9753 15.1752 33.7821 15.2552 33.6397 15.3976C33.4973 15.54 33.4173 15.7332 33.4173 15.9347V18.9726C33.4173 19.1741 33.3372 19.3673 33.1948 19.5097C33.0524 19.6521 32.8592 19.7321 32.6578 19.7321H28.8603C28.6588 19.7321 28.4657 19.8122 28.3232 19.9546C28.1808 20.097 28.1008 20.2902 28.1008 20.4916V24.2891H21.2653V19.7321C21.2652 19.5831 21.2212 19.4373 21.1388 19.3131C21.0564 19.1888 20.9393 19.0915 20.802 19.0334L20.3995 18.8511C21.6156 17.8537 22.5953 16.599 23.268 15.1773C23.9407 13.7556 24.2896 12.2024 24.2896 10.6296C24.2896 9.05676 23.9407 7.50354 23.268 6.08184C22.5953 4.66015 21.6156 3.4054 20.3995 2.40801C21.432 1.89972 22.5548 1.60033 23.7033 1.52699C26.0932 1.34667 28.4571 2.12055 30.2777 3.67922C32.0983 5.23789 33.2272 7.45438 33.4173 9.84348C33.4252 9.93859 33.4509 10.0313 33.4932 10.1169L36.0223 15.1752H34.1768Z" fill="#F54528"/>
<path d="M20.5065 9.85889H17.4685C17.2671 9.85889 17.0739 9.9389 16.9314 10.0813C16.789 10.2238 16.709 10.417 16.709 10.6184C16.709 10.8198 16.789 11.013 16.9314 11.1554C17.0739 11.2979 17.2671 11.3779 17.4685 11.3779H20.5065C20.7079 11.3779 20.9011 11.2979 21.0435 11.1554C21.186 11.013 21.266 10.8198 21.266 10.6184C21.266 10.417 21.186 10.2238 21.0435 10.0813C20.9011 9.9389 20.7079 9.85889 20.5065 9.85889Z" fill="#F54528"/>
<path d="M18.2273 8.3398H19.7463C19.9477 8.3398 20.1409 8.25978 20.2833 8.11734C20.4257 7.97491 20.5058 7.78173 20.5058 7.5803C20.5058 7.37887 20.4257 7.18569 20.2833 7.04325C20.1409 6.90082 19.9477 6.8208 19.7463 6.8208H18.2273C18.0258 6.8208 17.8327 6.90082 17.6902 7.04325C17.5478 7.18569 17.4678 7.37887 17.4678 7.5803C17.4678 7.78173 17.5478 7.97491 17.6902 8.11734C17.8327 8.25978 18.0258 8.3398 18.2273 8.3398Z" fill="#F54528"/>
<path d="M19.7463 12.8965H18.2273C18.0258 12.8965 17.8327 12.9765 17.6902 13.1189C17.5478 13.2614 17.4678 13.4546 17.4678 13.656C17.4678 13.8574 17.5478 14.0506 17.6902 14.193C17.8327 14.3355 18.0258 14.4155 18.2273 14.4155H19.7463C19.9477 14.4155 20.1409 14.3355 20.2833 14.193C20.4257 14.0506 20.5058 13.8574 20.5058 13.656C20.5058 13.4546 20.4257 13.2614 20.2833 13.1189C20.1409 12.9765 19.9477 12.8965 19.7463 12.8965Z" fill="#F54528"/>
</svg>
