<svg width="24" height="8" viewBox="0 0 24 8" fill="none" xmlns="http://www.w3.org/2000/svg">
<path fill-rule="evenodd" clip-rule="evenodd" d="M19.7733 0.649224C19.6327 0.503644 19.3985 0.503644 19.253 0.649224C19.1123 0.789886 19.1123 1.024 19.253 1.16433L21.8914 3.80281H13.4101L13.4101 3.80274H7.63572C7.63213 3.80275 7.62856 3.8028 7.625 3.80289H6.86369L6.86368 3.80282H1.08899C0.87237 3.80315 0.700195 3.96447 0.700195 4.16743C0.700195 4.37039 0.87237 4.53695 1.08899 4.53695H6.63132L6.63841 4.53702H10.9877V4.53687H13.1777L13.1848 4.53694H21.8914L19.253 7.1705C19.1123 7.31608 19.1123 7.55052 19.253 7.69085C19.3985 7.83643 19.633 7.83643 19.7733 7.69085L23.0364 4.42775C23.182 4.28709 23.182 4.05298 23.0364 3.91265L19.7733 0.649224Z" fill="#F7F7F7"/>
</svg>
