<svg width="23" height="8" viewBox="0 0 23 8" fill="none" xmlns="http://www.w3.org/2000/svg">
<path fill-rule="evenodd" clip-rule="evenodd" d="M3.75303 7.69062C3.89369 7.8362 4.1278 7.8362 4.27338 7.69062C4.41404 7.54996 4.41404 7.31585 4.27338 7.17551L1.6349 4.53704L10.1164 4.53703L10.1164 4.53713L15.8908 4.53713C15.8933 4.53712 15.8959 4.5371 15.8985 4.53705L16.664 4.53705L16.664 4.53714L22.4384 4.53714C22.655 4.53681 22.8271 4.3755 22.8271 4.17254C22.8271 3.96958 22.655 3.80301 22.4384 3.80301L16.8971 3.80301L16.8888 3.80292L12.5389 3.80292L12.5389 3.803L10.3499 3.803L10.3415 3.8029L1.63489 3.8029L4.27338 1.16934C4.41404 1.02376 4.41404 0.789326 4.27338 0.648992C4.1278 0.503411 3.89336 0.503412 3.75302 0.648992L0.489925 3.91209C0.344345 4.05275 0.344345 4.28686 0.489925 4.42719L3.75303 7.69062Z" fill="#F7F7F7"/>
</svg>
