<svg width="1440" height="30" viewBox="0 0 1440 30" fill="none" xmlns="http://www.w3.org/2000/svg">
<path d="M0 1V29H29.2683V1H49.7561V29H79.0244V1H99.5122V29H125.854V1H146.341V29H175.61V1H193.171V29H222.439V1H242.927V29H269.268V1H289.756V29H319.024V1H336.585V29H365.854V1H386.341V29H415.61V1H436.098V29H462.439V1H480V29" stroke="#FB9F90" stroke-width="1.5"/>
<path d="M480 1V29H509.268V1H529.756V29H559.024V1H579.512V29H605.854V1H626.341V29H655.61V1H673.171V29H702.439V1H722.927V29H749.268V1H769.756V29H799.024V1H816.585V29H845.854V1H866.341V29H895.61V1H916.098V29H942.439V1H960V29" stroke="#FB9F90" stroke-width="1.5"/>
<path d="M960 1V29H989.268V1H1009.76V29H1039.02V1H1059.51V29H1085.85V1H1106.34V29H1135.61V1H1153.17V29H1182.44V1H1202.93V29H1229.27V1H1249.76V29H1279.02V1H1296.59V29H1325.85V1H1346.34V29H1375.61V1H1396.1V29H1422.44V1H1440V29" stroke="#FB9F90" stroke-width="1.5"/>
</svg>
